<?xml version="1.0" encoding="UTF-8" standalone="no"?>
<svg
   width="367.51675"
   zoomAndPan="magnify"
   viewBox="0 0 275.63757 21.558594"
   height="28.744793"
   preserveAspectRatio="xMidYMid meet"
   version="1.0"
   id="svg944"
   xmlns="http://www.w3.org/2000/svg"
   xmlns:svg="http://www.w3.org/2000/svg">
  <defs
     id="defs826" />
  <g
     id="g1350"
     transform="translate(-52.575087,-78.788046)">
    <g
       fill="#ffbd59"
       fill-opacity="1"
       id="g840">
      <g
         transform="translate(51.664931,100.06539)"
         id="g838">
        <g
           id="g836">
          <path
             d="M 14.171875,-21 H 2.660156 v 4.097656 h 6.894532 v 10.917969 c 0,1.261719 -0.910157,2.203125 -2.066407,2.203125 -1.050781,0 -1.855469,-0.769531 -2.027343,-1.851562 l -4.550782,1.328124 c 0.453125,2.835938 2.730469,4.585938 6.578125,4.585938 4.304688,0 6.683594,-2.207031 6.683594,-5.671875 z m 0,0"
             id="path834" />
        </g>
      </g>
    </g>
    <g
       fill="#ffbd59"
       fill-opacity="1"
       id="g848">
      <g
         transform="translate(68.819725,100.06539)"
         id="g846">
        <g
           id="g844">
          <path
             d="m 14.699219,-10.640625 c 1.574219,-0.839844 2.589843,-2.308594 2.589843,-4.511719 C 17.289062,-18.863281 14.488281,-21 10.953125,-21 H 2.066406 V 0 h 9.691406 c 3.5,0 6.230469,-2.03125 6.230469,-5.738281 0,-2.554688 -1.328125,-4.128907 -3.289062,-4.902344 z m -2.03125,-4.023437 c 0,1.226562 -1.015625,2.273437 -2.273438,2.273437 H 6.683594 v -4.511719 h 3.710937 c 1.257813,0 2.273438,0.980469 2.273438,2.238282 z M 11.09375,-4.09375 H 6.683594 v -4.515625 h 4.410156 c 1.296875,0 2.273438,1.050781 2.273438,2.273437 0,1.261719 -0.976563,2.242188 -2.273438,2.242188 z m 0,0"
             id="path842" />
        </g>
      </g>
    </g>
    <g
       fill="#ffbd59"
       fill-opacity="1"
       id="g856">
      <g
         transform="translate(89.054101,100.06539)"
         id="g854">
        <g
           id="g852">
          <path
             d="m 12.074219,0.28125 c 4.164062,0 7.769531,-2.347656 9.554687,-5.777344 l -3.992187,-2.0625 c -1.011719,1.992188 -3.078125,3.324219 -5.5625,3.324219 -3.535157,0 -6.230469,-2.730469 -6.230469,-6.265625 0,-3.535156 2.695312,-6.261719 6.230469,-6.261719 2.484375,0 4.550781,1.328125 5.5625,3.324219 l 3.992187,-2.066406 c -1.785156,-3.429688 -5.390625,-5.773438 -9.554687,-5.773438 -5.949219,0 -10.78125,4.828125 -10.78125,10.777344 0,5.949219 4.832031,10.78125 10.78125,10.78125 z m 0,0"
             id="path850" />
        </g>
      </g>
    </g>
    <g
       fill="#000000"
       fill-opacity="1"
       id="g862">
      <g
         transform="translate(112.81336,100.06539)"
         id="g860">
        <g
           id="g858" />
      </g>
    </g>
    <g
       fill="#000000"
       fill-opacity="1"
       id="g870">
      <g
         transform="translate(122.44421,100.06539)"
         id="g868">
        <g
           id="g866">
          <path
             d="m 14.699219,-10.640625 c 1.574219,-0.839844 2.589843,-2.308594 2.589843,-4.511719 C 17.289062,-18.863281 14.488281,-21 10.953125,-21 H 2.066406 V 0 h 9.691406 c 3.5,0 6.230469,-2.03125 6.230469,-5.738281 0,-2.554688 -1.328125,-4.128907 -3.289062,-4.902344 z m -2.03125,-4.023437 c 0,1.226562 -1.015625,2.273437 -2.273438,2.273437 H 6.683594 v -4.511719 h 3.710937 c 1.257813,0 2.273438,0.980469 2.273438,2.238282 z M 11.09375,-4.09375 H 6.683594 v -4.515625 h 4.410156 c 1.296875,0 2.273438,1.050781 2.273438,2.273437 0,1.261719 -0.976563,2.242188 -2.273438,2.242188 z m 0,0"
             id="path864" />
        </g>
      </g>
    </g>
    <g
       fill="#000000"
       fill-opacity="1"
       id="g878">
      <g
         transform="translate(142.67858,100.06539)"
         id="g876">
        <g
           id="g874">
          <path
             d="M 6.683594,-4.09375 V -21 H 2.066406 V 0 h 11.582032 v -4.09375 z m 0,0"
             id="path872" />
        </g>
      </g>
    </g>
    <g
       fill="#000000"
       fill-opacity="1"
       id="g886">
      <g
         transform="translate(157.62868,100.06539)"
         id="g884">
        <g
           id="g882">
          <path
             d="m 12.074219,0.28125 c 5.984375,0 10.777343,-4.832031 10.777343,-10.78125 0,-5.949219 -4.792968,-10.777344 -10.777343,-10.777344 -5.949219,0 -10.78125,4.828125 -10.78125,10.777344 0,5.949219 4.832031,10.78125 10.78125,10.78125 z m 0,-4.515625 c -3.535157,0 -6.230469,-2.730469 -6.230469,-6.265625 0,-3.535156 2.695312,-6.261719 6.230469,-6.261719 3.570312,0 6.265625,2.726563 6.265625,6.261719 0,3.535156 -2.695313,6.265625 -6.265625,6.265625 z m 0,0"
             id="path880" />
        </g>
      </g>
    </g>
    <g
       fill="#000000"
       fill-opacity="1"
       id="g894">
      <g
         transform="translate(183.04233,100.06539)"
         id="g892">
        <g
           id="g890">
          <path
             d="m 12.074219,0.28125 c 4.164062,0 7.769531,-2.347656 9.554687,-5.777344 l -3.992187,-2.0625 c -1.011719,1.992188 -3.078125,3.324219 -5.5625,3.324219 -3.535157,0 -6.230469,-2.730469 -6.230469,-6.265625 0,-3.535156 2.695312,-6.261719 6.230469,-6.261719 2.484375,0 4.550781,1.328125 5.5625,3.324219 l 3.992187,-2.066406 c -1.785156,-3.429688 -5.390625,-5.773438 -9.554687,-5.773438 -5.949219,0 -10.78125,4.828125 -10.78125,10.777344 0,5.949219 4.832031,10.78125 10.78125,10.78125 z m 0,0"
             id="path888" />
        </g>
      </g>
    </g>
    <g
       fill="#000000"
       fill-opacity="1"
       id="g902">
      <g
         transform="translate(206.81121,100.06539)"
         id="g900">
        <g
           id="g898">
          <path
             d="m 15.1875,0 h 6.160156 L 11.234375,-11.652344 20.296875,-21 h -5.949219 l -6.859375,7.421875 H 6.683594 V -21 H 2.066406 V 0 h 4.617188 v -9.589844 h 0.664062 z m 0,0"
             id="path896" />
        </g>
      </g>
    </g>
    <g
       fill="#000000"
       fill-opacity="1"
       id="g910">
      <g
         transform="translate(228.65536,100.06539)"
         id="g908">
        <g
           id="g906">
          <path
             d="m 12.074219,0.28125 c 4.164062,0 7.769531,-2.347656 9.554687,-5.777344 l -3.992187,-2.0625 c -1.011719,1.992188 -3.078125,3.324219 -5.5625,3.324219 -3.535157,0 -6.230469,-2.730469 -6.230469,-6.265625 0,-3.535156 2.695312,-6.261719 6.230469,-6.261719 2.484375,0 4.550781,1.328125 5.5625,3.324219 l 3.992187,-2.066406 c -1.785156,-3.429688 -5.390625,-5.773438 -9.554687,-5.773438 -5.949219,0 -10.78125,4.828125 -10.78125,10.777344 0,5.949219 4.832031,10.78125 10.78125,10.78125 z m 0,0"
             id="path904" />
        </g>
      </g>
    </g>
    <g
       fill="#000000"
       fill-opacity="1"
       id="g918">
      <g
         transform="translate(252.42425,100.06539)"
         id="g916">
        <g
           id="g914">
          <path
             d="m 15.222656,-21 v 8.4375 H 6.683594 V -21 H 2.066406 V 0 h 4.617188 v -8.46875 h 8.539062 V 0 h 4.585938 v -21 z m 0,0"
             id="path912" />
        </g>
      </g>
    </g>
    <g
       fill="#000000"
       fill-opacity="1"
       id="g926">
      <g
         transform="translate(275.56322,100.06539)"
         id="g924">
        <g
           id="g922">
          <path
             d="M 14.910156,0 H 19.84375 L 12.285156,-21 H 7.105469 L -0.453125,0 h 4.933594 l 1.292969,-3.953125 h 7.839843 z M 7,-7.804688 l 2.695312,-8.328124 2.695313,8.328124 z m 0,0"
             id="path920" />
        </g>
      </g>
    </g>
    <g
       fill="#000000"
       fill-opacity="1"
       id="g934">
      <g
         transform="translate(296.18254,100.06539)"
         id="g932">
        <g
           id="g930">
          <path
             d="M 2.238281,0 H 6.859375 V -21 H 2.238281 Z m 0,0"
             id="path928" />
        </g>
      </g>
    </g>
    <g
       fill="#000000"
       fill-opacity="1"
       id="g942">
      <g
         transform="translate(306.47828,100.06539)"
         id="g940">
        <g
           id="g938">
          <path
             d="M 17.148438,-21 V -7.105469 L 6.824219,-21 H 2.066406 V 0 H 6.683594 V -13.929688 L 16.972656,0 h 4.761719 v -21 z m 0,0"
             id="path936" />
        </g>
      </g>
    </g>
  </g>
</svg>
